# xmcd
#
# Track frame offsets:
# 150
# 9229
# 20232
# 34772
# 50252
# 62243
# 77352
# 87003
# 96342
# 108749
# 120526
# 131026
# 144369
# 156542
#
# Disc length: 2218 seconds
#
#
# Revision: 0
# Processed by: cddbd v1.5.2PL0 Copyright (c) Steve Scherf et al.
# Submitted via: FreeRIP 2.951 
#
DISCID=b608a80e
DTITLE=Various Artist - Soul Disk 2
DYEAR=2006
DGENRE=Soul
TTITLE0=Every Beat of my heart
TTITLE1=Set me free
TTITLE2=We are family
TTITLE3=My guy
TTITLE4=Tell it like it is
TTITLE5=The great pretender
TTITLE6=Baby don't weep
TTITLE7=Good rockin' daddy
TTITLE8=Whats My destiny
TTITLE9=A lil' piece of leather
TTITLE10=Papa's got a brand new bag
TTITLE11=Alittle everyday
TTITLE12=Somebody's spoiling these woman
TTITLE13=Save the last dance 4 me
EXTD=
EXTT0=
EXTT1=
EXTT2=
EXTT3=
EXTT4=
EXTT5=
EXTT6=
EXTT7=
EXTT8=
EXTT9=
EXTT10=
EXTT11=
EXTT12=
EXTT13=
PLAYORDER=
